<?xml version="1.0"?><svg id="b" data-name="Layer 2" xmlns="http://www.w3.org/2000/svg" width="280.45" height="101.893" viewBox="0 0 280.45 101.893">
  <g id="c" data-name="Layer 1">
    <g>
      <path d="m140.225,0C62.785,0,0,22.82,0,50.956s62.785,50.937,140.225,50.937,140.225-22.82,140.225-50.937S217.665,0,140.225,0Zm0,99.085c-63.999,0-115.872-21.545-115.872-48.129S76.226,2.808,140.225,2.808s115.872,21.545,115.872,48.149-51.873,48.129-115.872,48.129Z" fill="#221f1f" stroke-width="0"></path>
      <path d="m59.618,50.956c0-26.603,36.082-48.149,80.606-48.149-53.645,0-97.114,21.545-97.114,48.149s43.469,48.129,97.114,48.129c-44.525,0-80.606-21.545-80.606-48.129Z" fill="#221f1f" stroke-width="0"></path>
      <path d="m237.339,50.956c0-26.603-43.469-48.149-97.114-48.149,44.525,0,80.606,21.545,80.606,48.149s-36.082,48.129-80.606,48.129c53.645,0,97.114-21.545,97.114-48.129Z" fill="#221f1f" stroke-width="0"></path>
      <path d="m89.627,50.956c0-26.603,22.661-48.149,50.598-48.149-33.772,0-61.172,21.545-61.172,48.149s27.4,48.129,61.172,48.129c-27.937,0-50.598-21.545-50.598-48.129Z" fill="#221f1f" stroke-width="0"></path>
      <path d="m201.376,50.956c0-26.603-27.38-48.149-61.152-48.149,27.937,0,50.598,21.545,50.598,48.149s-22.661,48.129-50.598,48.129c33.772,0,61.152-21.545,61.152-48.129Z" fill="#221f1f" stroke-width="0"></path>
      <path d="m115.692,50.956c0-26.603,10.992-48.149,24.532-48.149-16.946,0-30.685,21.545-30.685,48.149s13.74,48.129,30.685,48.129c-13.541,0-24.532-21.545-24.532-48.129Z" fill="#221f1f" stroke-width="0"></path>
      <path d="m170.91,50.956c0-26.603-13.74-48.149-30.685-48.149,13.541,0,24.532,21.545,24.532,48.149s-10.992,48.129-24.532,48.129c16.946,0,30.685-21.545,30.685-48.129Z" fill="#221f1f" stroke-width="0"></path>
    </g>
  </g>
</svg>